<?xml version="1.0"?>
<svg xmlns="http://www.w3.org/2000/svg" xmlns:xlink="http://www.w3.org/1999/xlink" version="1.1" id="Capa_1" x="0px" y="0px" viewBox="0 0 512 512" style="enable-background:new 0 0 512 512;" xml:space="preserve" width="512px" height="512px" class=""><g><path id="SVGCleanerId_0" d="M503.467,110.933h-25.6V68.267c0-4.71-3.823-8.533-8.533-8.533H324.267  c-28.749,0.026-55.083,16.085-68.267,41.634c-13.184-25.549-39.518-41.609-68.267-41.634H42.667c-4.71,0-8.533,3.823-8.533,8.533  v42.667h-25.6c-4.71,0-8.533,3.823-8.533,8.533v324.267c0,4.71,3.823,8.533,8.533,8.533h494.933c4.71,0,8.533-3.823,8.533-8.533  V119.467C512,114.756,508.177,110.933,503.467,110.933z M51.2,384h136.533c23.134,0.034,44.177,13.423,53.999,34.372  c-15.795-11.187-34.645-17.229-53.999-17.306H51.2V384z M324.267,76.8H460.8v290.133H324.267  c-23.262,0.043-45.244,10.658-59.733,28.86v-259.26C264.567,103.561,291.294,76.834,324.267,76.8z M460.8,384v17.067H324.267  c-19.354,0.077-38.204,6.118-53.999,17.306c9.822-20.949,30.865-34.338,53.999-34.372H460.8z M51.2,76.8h136.533  c32.973,0.034,59.699,26.761,59.733,59.733v259.26c-14.49-18.202-36.471-28.817-59.733-28.86H51.2V76.8z M17.067,128h17.067v281.6  c0,4.71,3.823,8.533,8.533,8.533h145.067c17.519,0.06,34.492,6.076,48.137,17.067H17.067V128z M494.933,435.2H276.13  c13.645-10.991,30.618-17.007,48.137-17.067h145.067c4.71,0,8.533-3.823,8.533-8.533V128h17.067V435.2z" data-original="#000000" class=""/><g>
	<rect id="SVGCleanerId_1" x="76.8" y="110.933" width="85.333" height="17.067" data-original="#000000" class=""/>
</g><rect x="128" y="153.6" width="85.333" height="17.067" data-original="#000000" class=""/><g>
	<rect id="SVGCleanerId_2" x="76.8" y="153.6" width="34.133" height="17.067" data-original="#000000" class=""/>
</g><rect x="76.8" y="196.267" width="136.533" height="17.067" data-original="#000000" class=""/><g>
	<rect id="SVGCleanerId_3" x="76.8" y="281.6" width="136.533" height="17.067" data-original="#000000" class=""/>
</g><rect x="76.8" y="324.267" width="136.533" height="17.067" data-original="#000000" class=""/><g>
	<rect id="SVGCleanerId_4" x="179.2" y="110.933" width="34.133" height="17.067" data-original="#000000" class=""/>
</g><rect x="76.8" y="238.933" width="85.333" height="17.067" data-original="#000000" class=""/><g>
	<rect id="SVGCleanerId_5" x="179.2" y="238.933" width="34.133" height="17.067" data-original="#000000" class=""/>
</g><rect x="349.867" y="324.267" width="85.333" height="17.067" data-original="#000000" class=""/><g>
	<rect id="SVGCleanerId_6" x="298.667" y="281.6" width="85.333" height="17.067" data-original="#000000" class=""/>
</g><rect x="401.067" y="281.6" width="34.133" height="17.067" data-original="#000000" class=""/><g>
	<rect id="SVGCleanerId_7" x="298.667" y="238.933" width="136.533" height="17.067" data-original="#000000" class=""/>
</g><rect x="298.667" y="153.6" width="136.533" height="17.067" data-original="#000000" class=""/><g>
	<rect id="SVGCleanerId_8" x="298.667" y="324.267" width="34.133" height="17.067" data-original="#000000" class=""/>
</g><rect x="349.867" y="196.267" width="85.333" height="17.067" data-original="#000000" class=""/><g>
	<rect id="SVGCleanerId_9" x="298.667" y="196.267" width="34.133" height="17.067" data-original="#000000" class=""/>
</g><rect x="384" y="110.933" width="51.2" height="17.067" data-original="#000000" class=""/><g>
	<rect id="SVGCleanerId_10" x="298.667" y="110.933" width="68.267" height="17.067" data-original="#000000" class=""/>
</g><rect x="8.533" y="119.467" style="fill:#4398D1;" width="494.933" height="324.267" data-original="#4398D1" class=""/><g>
	<path style="fill:#D1D1D1;" d="M187.733,375.467H42.667V409.6h145.067c26.863,0,52.147,12.646,68.267,34.133   C256,406.033,225.434,375.467,187.733,375.467z" data-original="#D1D1D1" class=""/>
	<path style="fill:#D1D1D1;" d="M256,443.733c16.119-21.487,41.404-34.133,68.267-34.133h145.067v-34.133H324.267   C286.566,375.467,256,406.033,256,443.733z" data-original="#D1D1D1" class=""/>
</g><path style="fill:#EBEBEB;" d="M187.733,68.267H42.667v307.2h145.067c37.7,0,68.267,30.566,68.267,68.267v-307.2  C256,98.833,225.434,68.267,187.733,68.267z" data-original="#EBEBEB"/><path style="fill:#E0E0E0;" d="M324.267,68.267c-37.7,0-68.267,30.566-68.267,68.267v307.2c0-37.7,30.566-68.267,68.267-68.267  h145.067v-307.2H324.267z" data-original="#E0E0E0" class=""/><g>
	<g>
		<rect id="SVGCleanerId_1_1_" x="76.8" y="110.933" style="fill:#C7C7C7;" width="85.333" height="17.067" data-original="#C7C7C7"/>
	</g>
	<rect x="128" y="153.6" style="fill:#C7C7C7;" width="85.333" height="17.067" data-original="#C7C7C7"/>
	<g>
		<rect id="SVGCleanerId_2_1_" x="76.8" y="153.6" style="fill:#C7C7C7;" width="34.133" height="17.067" data-original="#C7C7C7"/>
	</g>
	<rect x="76.8" y="196.267" style="fill:#C7C7C7;" width="136.533" height="17.067" data-original="#C7C7C7"/>
	<g>
		<rect id="SVGCleanerId_3_1_" x="76.8" y="281.6" style="fill:#C7C7C7;" width="136.533" height="17.067" data-original="#C7C7C7"/>
	</g>
	<rect x="76.8" y="324.267" style="fill:#C7C7C7;" width="136.533" height="17.067" data-original="#C7C7C7"/>
	<g>
		<rect id="SVGCleanerId_4_1_" x="179.2" y="110.933" style="fill:#C7C7C7;" width="34.133" height="17.067" data-original="#C7C7C7"/>
	</g>
	<rect x="76.8" y="238.933" style="fill:#C7C7C7;" width="85.333" height="17.067" data-original="#C7C7C7"/>
	<g>
		<rect id="SVGCleanerId_5_1_" x="179.2" y="238.933" style="fill:#C7C7C7;" width="34.133" height="17.067" data-original="#C7C7C7"/>
	</g>
	<rect x="349.867" y="324.267" style="fill:#C7C7C7;" width="85.333" height="17.067" data-original="#C7C7C7"/>
	<g>
		<rect id="SVGCleanerId_6_1_" x="298.667" y="281.6" style="fill:#C7C7C7;" width="85.333" height="17.067" data-original="#C7C7C7"/>
	</g>
	<rect x="401.067" y="281.6" style="fill:#C7C7C7;" width="34.133" height="17.067" data-original="#C7C7C7"/>
	<g>
		<rect id="SVGCleanerId_7_1_" x="298.667" y="238.933" style="fill:#C7C7C7;" width="136.533" height="17.067" data-original="#C7C7C7"/>
	</g>
	<rect x="298.667" y="153.6" style="fill:#C7C7C7;" width="136.533" height="17.067" data-original="#C7C7C7"/>
	<g>
		<rect id="SVGCleanerId_8_1_" x="298.667" y="324.267" style="fill:#C7C7C7;" width="34.133" height="17.067" data-original="#C7C7C7"/>
	</g>
	<rect x="349.867" y="196.267" style="fill:#C7C7C7;" width="85.333" height="17.067" data-original="#C7C7C7"/>
	<g>
		<rect id="SVGCleanerId_9_1_" x="298.667" y="196.267" style="fill:#C7C7C7;" width="34.133" height="17.067" data-original="#C7C7C7"/>
	</g>
	<rect x="384" y="110.933" style="fill:#C7C7C7;" width="51.2" height="17.067" data-original="#C7C7C7"/>
	<g>
		<rect id="SVGCleanerId_10_1_" x="298.667" y="110.933" style="fill:#C7C7C7;" width="68.267" height="17.067" data-original="#C7C7C7"/>
	</g>
</g><g>
	<path id="SVGCleanerId_0_1_" d="M503.467,110.933h-25.6V68.267c0-4.71-3.823-8.533-8.533-8.533H324.267   c-28.749,0.026-55.083,16.085-68.267,41.634c-13.184-25.549-39.518-41.609-68.267-41.634H42.667c-4.71,0-8.533,3.823-8.533,8.533   v42.667h-25.6c-4.71,0-8.533,3.823-8.533,8.533v324.267c0,4.71,3.823,8.533,8.533,8.533h494.933c4.71,0,8.533-3.823,8.533-8.533   V119.467C512,114.756,508.177,110.933,503.467,110.933z M51.2,384h136.533c23.134,0.034,44.177,13.423,53.999,34.372   c-15.795-11.187-34.645-17.229-53.999-17.306H51.2V384z M324.267,76.8H460.8v290.133H324.267   c-23.262,0.043-45.244,10.658-59.733,28.86v-259.26C264.567,103.561,291.294,76.834,324.267,76.8z M460.8,384v17.067H324.267   c-19.354,0.077-38.204,6.118-53.999,17.306c9.822-20.949,30.865-34.338,53.999-34.372H460.8z M51.2,76.8h136.533   c32.973,0.034,59.699,26.761,59.733,59.733v259.26c-14.49-18.202-36.471-28.817-59.733-28.86H51.2V76.8z M17.067,128h17.067v281.6   c0,4.71,3.823,8.533,8.533,8.533h145.067c17.519,0.06,34.492,6.076,48.137,17.067H17.067V128z M494.933,435.2H276.13   c13.645-10.991,30.618-17.007,48.137-17.067h145.067c4.71,0,8.533-3.823,8.533-8.533V128h17.067V435.2z" data-original="#000000" class=""/>
</g><g>
	<rect id="SVGCleanerId_1_2_" x="76.8" y="110.933" width="85.333" height="17.067" data-original="#000000" class=""/>
</g><rect x="128" y="153.6" width="85.333" height="17.067" data-original="#000000" class=""/><g>
	<rect id="SVGCleanerId_2_2_" x="76.8" y="153.6" width="34.133" height="17.067" data-original="#000000" class=""/>
</g><rect x="76.8" y="196.267" width="136.533" height="17.067" data-original="#000000" class=""/><g>
	<rect id="SVGCleanerId_3_2_" x="76.8" y="281.6" width="136.533" height="17.067" data-original="#000000" class=""/>
</g><rect x="76.8" y="324.267" width="136.533" height="17.067" data-original="#000000" class=""/><g>
	<rect id="SVGCleanerId_4_2_" x="179.2" y="110.933" width="34.133" height="17.067" data-original="#000000" class=""/>
</g><rect x="76.8" y="238.933" width="85.333" height="17.067" data-original="#000000" class=""/><g>
	<rect id="SVGCleanerId_5_2_" x="179.2" y="238.933" width="34.133" height="17.067" data-original="#000000" class=""/>
</g><rect x="349.867" y="324.267" width="85.333" height="17.067" data-original="#000000" class=""/><g>
	<rect id="SVGCleanerId_6_2_" x="298.667" y="281.6" width="85.333" height="17.067" data-original="#000000" class=""/>
</g><rect x="401.067" y="281.6" width="34.133" height="17.067" data-original="#000000" class=""/><g>
	<rect id="SVGCleanerId_7_2_" x="298.667" y="238.933" width="136.533" height="17.067" data-original="#000000" class=""/>
</g><rect x="298.667" y="153.6" width="136.533" height="17.067" data-original="#000000" class=""/><g>
	<rect id="SVGCleanerId_8_2_" x="298.667" y="324.267" width="34.133" height="17.067" data-original="#000000" class=""/>
</g><rect x="349.867" y="196.267" width="85.333" height="17.067" data-original="#000000" class=""/><g>
	<rect id="SVGCleanerId_9_2_" x="298.667" y="196.267" width="34.133" height="17.067" data-original="#000000" class=""/>
</g><rect x="384" y="110.933" width="51.2" height="17.067" data-original="#000000" class=""/><g>
	<rect id="SVGCleanerId_10_2_" x="298.667" y="110.933" width="68.267" height="17.067" data-original="#000000" class=""/>
</g></g> </svg>
